# xmcd
#
# Track frame offsets: 
#        150
#        17615
#        28746
#        38836
#        50550
#        65180
#        77445
#        88571
#        103827
#        118786
#        129244
#        141676
#        154268
#        169909
#
# Disc length: 2504 seconds
#
# Revision: 0
# Processed by: cddbd v1.5.2PL0 Copyright (c) Steve Scherf et al.
# Submitted via: ExactAudioCopy v1.0b1
#
DISCID=c209c60e
DTITLE=Chris LeDoux - Western Tunesmith
DYEAR=1979
DGENRE=Country
TTITLE0=Country Star
TTITLE1=Ten Seconds In The Saddle
TTITLE2=Cowboy And The Rose
TTITLE3=Old Paint
TTITLE4=Dream Of Cowboy
TTITLE5=Dirt And Sweat Cowboy
TTITLE6=Navajo Wrangler
TTITLE7=Jeans And Good Leather
TTITLE8=Come Ridding Joe Cy
TTITLE9=Get Along Little Doggies
TTITLE10=My Heroes Have Always Been Cowboys
TTITLE11=I Don't Want To Be A Cowboy Anymore
TTITLE12=Blue Eyes And Freckles
TTITLE13=Song Of Wyoming
EXTD=
EXTT0=
EXTT1=
EXTT2=
EXTT3=
EXTT4=
EXTT5=
EXTT6=
EXTT7=
EXTT8=
EXTT9=
EXTT10=
EXTT11=
EXTT12=
EXTT13=
PLAYORDER=
